<svg width="16" height="18" viewBox="0 0 16 18" fill="none" xmlns="http://www.w3.org/2000/svg">
<path fill-rule="evenodd" clip-rule="evenodd" d="M4.08272 4.83366V4.83374H2.58643C2.15378 4.83374 1.79309 5.16484 1.75614 5.59591L0.827568 16.4292C0.785865 16.9158 1.16954 17.3337 1.65786 17.3337H14.8422C15.3305 17.3337 15.7142 16.9158 15.6725 16.4292L14.7439 5.59591C14.707 5.16484 14.3463 4.83374 13.9136 4.83374H12.4161V4.83366C12.4161 2.53247 10.5506 0.666992 8.24939 0.666992C5.9482 0.666992 4.08272 2.53247 4.08272 4.83366ZM5.74939 4.83366V4.83374H10.7494V4.83366C10.7494 3.45295 9.6301 2.33366 8.24939 2.33366C6.86868 2.33366 5.74939 3.45295 5.74939 4.83366ZM8.2481 11.5003C10.5318 11.5003 12.3864 9.66309 12.4144 7.38604C12.4155 7.36872 12.4161 7.35125 12.4161 7.33366C12.4161 6.87342 12.043 6.50033 11.5827 6.50033C11.1225 6.50033 10.7494 6.87342 10.7494 7.33366V7.33374H10.7481C10.7481 8.71441 9.62878 9.83366 8.2481 9.83366C6.88095 9.83366 5.77012 8.73626 5.74842 7.37428C5.74907 7.36082 5.7494 7.34728 5.7494 7.33366C5.7494 6.87342 5.3763 6.50033 4.91606 6.50033C4.45583 6.50033 4.08273 6.87342 4.08273 7.33366V7.33374H4.08208V7.25942C4.08165 7.28412 4.08143 7.30886 4.08143 7.33366C4.08143 9.63485 5.94691 11.5003 8.2481 11.5003Z" fill="white"/>
</svg>
