<svg width="24" height="24" viewBox="0 0 24 24" fill="none" xmlns="http://www.w3.org/2000/svg">
<path fill-rule="evenodd" clip-rule="evenodd" d="M15.8095 17.223C12.671 19.6655 8.13218 19.4452 5.24713 16.5601C2.12316 13.4361 2.1229 8.37063 5.24713 5.2464C8.37137 2.12216 13.4369 2.12242 16.5608 5.2464C19.4459 8.13145 19.6663 12.6702 17.2238 15.8088L20.8035 19.3885C20.9913 19.5764 21.0894 19.8207 21.0957 20.0658C21.1035 20.3315 21.0063 20.5999 20.8035 20.8027C20.413 21.1932 19.7801 21.1936 19.3893 20.8027L15.8095 17.223ZM15.1466 6.66061C17.4903 9.00428 17.4898 12.8027 15.1466 15.1459C12.8035 17.489 9.00502 17.4896 6.66135 15.1459C4.31767 12.8022 4.31819 9.00377 6.66135 6.66061C9.0045 4.31746 12.803 4.31694 15.1466 6.66061Z" fill="#586A84"/>
</svg>
