<svg width="210" height="36" viewBox="0 0 210 36" fill="none" xmlns="http://www.w3.org/2000/svg">
<rect x="1" y="0.5" width="207.75" height="35" rx="17.5" fill="white"/>
<path d="M73.5391 19.835H74.8516C74.7832 20.4639 74.6032 21.0267 74.3115 21.5234C74.0199 22.0202 73.6074 22.4144 73.0742 22.7061C72.541 22.9932 71.8757 23.1367 71.0781 23.1367C70.4948 23.1367 69.9639 23.0273 69.4854 22.8086C69.0114 22.5898 68.6035 22.2799 68.2617 21.8789C67.9199 21.4733 67.6556 20.988 67.4688 20.4229C67.2865 19.8532 67.1953 19.2197 67.1953 18.5225V17.5312C67.1953 16.834 67.2865 16.2028 67.4688 15.6377C67.6556 15.068 67.9222 14.5804 68.2686 14.1748C68.6195 13.7692 69.041 13.457 69.5332 13.2383C70.0254 13.0195 70.5791 12.9102 71.1943 12.9102C71.9463 12.9102 72.582 13.0514 73.1016 13.334C73.6211 13.6165 74.0244 14.0085 74.3115 14.5098C74.6032 15.0065 74.7832 15.583 74.8516 16.2393H73.5391C73.4753 15.7744 73.3568 15.3757 73.1836 15.043C73.0104 14.7057 72.7643 14.446 72.4453 14.2637C72.1263 14.0814 71.7093 13.9902 71.1943 13.9902C70.7523 13.9902 70.3626 14.0745 70.0254 14.2432C69.6927 14.4118 69.4124 14.651 69.1846 14.9609C68.9613 15.2708 68.7926 15.6423 68.6787 16.0752C68.5648 16.5081 68.5078 16.9889 68.5078 17.5176V18.5225C68.5078 19.0101 68.5579 19.4681 68.6582 19.8965C68.763 20.3249 68.9202 20.7008 69.1299 21.0244C69.3395 21.348 69.6061 21.6032 69.9297 21.79C70.2533 21.9723 70.6361 22.0635 71.0781 22.0635C71.6387 22.0635 72.0853 21.9746 72.418 21.7969C72.7507 21.6191 73.0013 21.3639 73.1699 21.0312C73.3431 20.6986 73.4661 20.2998 73.5391 19.835ZM76.123 19.3838V19.2266C76.123 18.6934 76.2005 18.1989 76.3555 17.7432C76.5104 17.2829 76.7337 16.8841 77.0254 16.5469C77.3171 16.2051 77.6702 15.9408 78.085 15.7539C78.4997 15.5625 78.9645 15.4668 79.4795 15.4668C79.999 15.4668 80.4661 15.5625 80.8809 15.7539C81.3001 15.9408 81.6556 16.2051 81.9473 16.5469C82.2435 16.8841 82.4691 17.2829 82.624 17.7432C82.779 18.1989 82.8564 18.6934 82.8564 19.2266V19.3838C82.8564 19.917 82.779 20.4115 82.624 20.8672C82.4691 21.3229 82.2435 21.7217 81.9473 22.0635C81.6556 22.4007 81.3024 22.665 80.8877 22.8564C80.4775 23.0433 80.0127 23.1367 79.4932 23.1367C78.9736 23.1367 78.5065 23.0433 78.0918 22.8564C77.6771 22.665 77.3216 22.4007 77.0254 22.0635C76.7337 21.7217 76.5104 21.3229 76.3555 20.8672C76.2005 20.4115 76.123 19.917 76.123 19.3838ZM77.3877 19.2266V19.3838C77.3877 19.7529 77.431 20.1016 77.5176 20.4297C77.6042 20.7533 77.734 21.0404 77.9072 21.291C78.085 21.5417 78.306 21.7399 78.5703 21.8857C78.8346 22.027 79.1423 22.0977 79.4932 22.0977C79.8395 22.0977 80.1426 22.027 80.4023 21.8857C80.6667 21.7399 80.8854 21.5417 81.0586 21.291C81.2318 21.0404 81.3617 20.7533 81.4482 20.4297C81.5394 20.1016 81.585 19.7529 81.585 19.3838V19.2266C81.585 18.862 81.5394 18.5179 81.4482 18.1943C81.3617 17.8662 81.2295 17.5768 81.0518 17.3262C80.8786 17.071 80.6598 16.8704 80.3955 16.7246C80.1357 16.5788 79.8304 16.5059 79.4795 16.5059C79.1331 16.5059 78.8278 16.5788 78.5635 16.7246C78.3037 16.8704 78.085 17.071 77.9072 17.3262C77.734 17.5768 77.6042 17.8662 77.5176 18.1943C77.431 18.5179 77.3877 18.862 77.3877 19.2266ZM85.7002 17.0732V23H84.4287V15.6035H85.6318L85.7002 17.0732ZM85.4404 19.0215L84.8525 19.001C84.8571 18.4951 84.9232 18.028 85.0508 17.5996C85.1784 17.1667 85.3675 16.7907 85.6182 16.4717C85.8688 16.1527 86.181 15.9066 86.5547 15.7334C86.9284 15.5557 87.3613 15.4668 87.8535 15.4668C88.1999 15.4668 88.5189 15.5169 88.8105 15.6172C89.1022 15.7129 89.3551 15.8656 89.5693 16.0752C89.7835 16.2848 89.9499 16.5537 90.0684 16.8818C90.1868 17.21 90.2461 17.6064 90.2461 18.0713V23H88.9814V18.1328C88.9814 17.7454 88.9154 17.4355 88.7832 17.2031C88.6556 16.9707 88.4733 16.8021 88.2363 16.6973C87.9993 16.5879 87.7214 16.5332 87.4023 16.5332C87.0286 16.5332 86.7165 16.5993 86.4658 16.7314C86.2152 16.8636 86.0146 17.0459 85.8643 17.2783C85.7139 17.5107 85.6045 17.7773 85.5361 18.0781C85.4723 18.3743 85.4404 18.6888 85.4404 19.0215ZM90.2324 18.3242L89.3848 18.584C89.3893 18.1784 89.4554 17.7887 89.583 17.415C89.7152 17.0413 89.9043 16.7087 90.1504 16.417C90.401 16.1253 90.7087 15.8952 91.0732 15.7266C91.4378 15.5534 91.8548 15.4668 92.3242 15.4668C92.7207 15.4668 93.0716 15.5192 93.377 15.624C93.6868 15.7288 93.9466 15.8906 94.1562 16.1094C94.3704 16.3236 94.5322 16.5993 94.6416 16.9365C94.751 17.2738 94.8057 17.6748 94.8057 18.1396V23H93.5342V18.126C93.5342 17.7113 93.4681 17.39 93.3359 17.1621C93.2083 16.9297 93.026 16.7679 92.7891 16.6768C92.5566 16.5811 92.2786 16.5332 91.9551 16.5332C91.6771 16.5332 91.431 16.5811 91.2168 16.6768C91.0026 16.7725 90.8226 16.9046 90.6768 17.0732C90.5309 17.2373 90.4193 17.4264 90.3418 17.6406C90.2689 17.8548 90.2324 18.0827 90.2324 18.3242ZM97.9844 17.0254V25.8438H96.7129V15.6035H97.875L97.9844 17.0254ZM102.968 19.2402V19.3838C102.968 19.9215 102.904 20.4206 102.776 20.8809C102.649 21.3366 102.462 21.7331 102.216 22.0703C101.974 22.4076 101.676 22.6696 101.32 22.8564C100.965 23.0433 100.557 23.1367 100.097 23.1367C99.6273 23.1367 99.2126 23.0592 98.8525 22.9043C98.4925 22.7493 98.1872 22.5238 97.9365 22.2275C97.6859 21.9313 97.4854 21.5758 97.335 21.1611C97.1891 20.7464 97.0889 20.2793 97.0342 19.7598V18.9941C97.0889 18.4473 97.1914 17.9574 97.3418 17.5244C97.4922 17.0915 97.6904 16.7223 97.9365 16.417C98.1872 16.1071 98.4902 15.8724 98.8457 15.7129C99.2012 15.5488 99.6113 15.4668 100.076 15.4668C100.541 15.4668 100.953 15.5579 101.313 15.7402C101.674 15.918 101.977 16.1732 102.223 16.5059C102.469 16.8385 102.653 17.2373 102.776 17.7021C102.904 18.1624 102.968 18.6751 102.968 19.2402ZM101.696 19.3838V19.2402C101.696 18.8711 101.658 18.5247 101.58 18.2012C101.503 17.873 101.382 17.5859 101.218 17.3398C101.058 17.0892 100.853 16.8932 100.603 16.752C100.352 16.6061 100.053 16.5332 99.707 16.5332C99.388 16.5332 99.11 16.5879 98.873 16.6973C98.6406 16.8066 98.4424 16.9548 98.2783 17.1416C98.1143 17.3239 97.9798 17.5335 97.875 17.7705C97.7747 18.0029 97.6995 18.2445 97.6494 18.4951V20.2656C97.7406 20.5846 97.8682 20.8854 98.0322 21.168C98.1963 21.446 98.415 21.6715 98.6885 21.8447C98.9619 22.0133 99.306 22.0977 99.7207 22.0977C100.062 22.0977 100.356 22.027 100.603 21.8857C100.853 21.7399 101.058 21.5417 101.218 21.291C101.382 21.0404 101.503 20.7533 101.58 20.4297C101.658 20.1016 101.696 19.7529 101.696 19.3838ZM108.942 21.7354V17.9277C108.942 17.6361 108.883 17.3831 108.765 17.1689C108.651 16.9502 108.478 16.7816 108.245 16.6631C108.013 16.5446 107.726 16.4854 107.384 16.4854C107.065 16.4854 106.785 16.54 106.543 16.6494C106.306 16.7588 106.119 16.9023 105.982 17.0801C105.85 17.2578 105.784 17.4492 105.784 17.6543H104.52C104.52 17.39 104.588 17.1279 104.725 16.8682C104.861 16.6084 105.057 16.3737 105.312 16.1641C105.572 15.9499 105.882 15.7812 106.242 15.6582C106.607 15.5306 107.012 15.4668 107.459 15.4668C107.997 15.4668 108.471 15.5579 108.881 15.7402C109.296 15.9225 109.619 16.1982 109.852 16.5674C110.089 16.932 110.207 17.39 110.207 17.9414V21.3867C110.207 21.6328 110.228 21.8949 110.269 22.1729C110.314 22.4508 110.38 22.6901 110.467 22.8906V23H109.147C109.084 22.8542 109.034 22.6605 108.997 22.4189C108.961 22.1729 108.942 21.945 108.942 21.7354ZM109.161 18.5156L109.175 19.4043H107.896C107.536 19.4043 107.215 19.4339 106.933 19.4932C106.65 19.5479 106.413 19.6322 106.222 19.7461C106.03 19.86 105.884 20.0036 105.784 20.1768C105.684 20.3454 105.634 20.5436 105.634 20.7715C105.634 21.0039 105.686 21.2158 105.791 21.4072C105.896 21.5986 106.053 21.7513 106.263 21.8652C106.477 21.9746 106.739 22.0293 107.049 22.0293C107.436 22.0293 107.778 21.9473 108.074 21.7832C108.37 21.6191 108.605 21.4186 108.778 21.1816C108.956 20.9447 109.052 20.7145 109.065 20.4912L109.605 21.0996C109.574 21.291 109.487 21.5029 109.346 21.7354C109.204 21.9678 109.015 22.1911 108.778 22.4053C108.546 22.6149 108.268 22.7904 107.944 22.9316C107.625 23.0684 107.265 23.1367 106.864 23.1367C106.363 23.1367 105.923 23.0387 105.545 22.8428C105.171 22.6468 104.88 22.3848 104.67 22.0566C104.465 21.724 104.362 21.3525 104.362 20.9424C104.362 20.5459 104.44 20.1973 104.595 19.8965C104.75 19.5911 104.973 19.3382 105.265 19.1377C105.556 18.9326 105.907 18.7777 106.317 18.6729C106.728 18.568 107.186 18.5156 107.691 18.5156H109.161ZM113.461 16.7656V23H112.196V15.6035H113.427L113.461 16.7656ZM115.771 15.5625L115.765 16.7383C115.66 16.7155 115.56 16.7018 115.464 16.6973C115.373 16.6882 115.268 16.6836 115.149 16.6836C114.858 16.6836 114.6 16.7292 114.377 16.8203C114.154 16.9115 113.965 17.0391 113.81 17.2031C113.655 17.3672 113.532 17.5632 113.44 17.791C113.354 18.0143 113.297 18.2604 113.27 18.5293L112.914 18.7344C112.914 18.2878 112.957 17.8685 113.044 17.4766C113.135 17.0846 113.274 16.7383 113.461 16.4375C113.648 16.1322 113.885 15.8952 114.172 15.7266C114.464 15.5534 114.81 15.4668 115.211 15.4668C115.302 15.4668 115.407 15.4782 115.525 15.501C115.644 15.5192 115.726 15.5397 115.771 15.5625ZM119.873 23.1367C119.358 23.1367 118.891 23.0501 118.472 22.877C118.057 22.6992 117.699 22.4508 117.398 22.1318C117.102 21.8128 116.874 21.4346 116.715 20.9971C116.555 20.5596 116.476 20.0811 116.476 19.5615V19.2744C116.476 18.6729 116.564 18.1374 116.742 17.668C116.92 17.194 117.161 16.793 117.467 16.4648C117.772 16.1367 118.118 15.8883 118.506 15.7197C118.893 15.5511 119.294 15.4668 119.709 15.4668C120.238 15.4668 120.693 15.5579 121.076 15.7402C121.464 15.9225 121.78 16.1777 122.026 16.5059C122.272 16.8294 122.455 17.2122 122.573 17.6543C122.692 18.0918 122.751 18.5703 122.751 19.0898V19.6572H117.228V18.625H121.486V18.5293C121.468 18.2012 121.4 17.8822 121.281 17.5723C121.167 17.2624 120.985 17.0072 120.734 16.8066C120.484 16.6061 120.142 16.5059 119.709 16.5059C119.422 16.5059 119.158 16.5674 118.916 16.6904C118.674 16.8089 118.467 16.9867 118.294 17.2236C118.121 17.4606 117.986 17.75 117.891 18.0918C117.795 18.4336 117.747 18.8278 117.747 19.2744V19.5615C117.747 19.9124 117.795 20.2428 117.891 20.5527C117.991 20.8581 118.134 21.127 118.321 21.3594C118.513 21.5918 118.743 21.7741 119.012 21.9062C119.285 22.0384 119.595 22.1045 119.941 22.1045C120.388 22.1045 120.766 22.0133 121.076 21.8311C121.386 21.6488 121.657 21.4049 121.89 21.0996L122.655 21.708C122.496 21.9495 122.293 22.1797 122.047 22.3984C121.801 22.6172 121.498 22.7949 121.138 22.9316C120.782 23.0684 120.361 23.1367 119.873 23.1367Z" fill="#586A84"/>
<path fill-rule="evenodd" clip-rule="evenodd" d="M141.875 14.2353C142.005 14.1052 142.005 13.8941 141.875 13.7639L140.013 11.902C139.803 11.692 139.444 11.8407 139.444 12.1377V13.333H137.445V13.3331C136.597 13.3332 135.824 13.6497 135.235 14.1708C135.525 14.5326 135.752 14.9457 135.903 15.3942C136.269 14.9498 136.824 14.6665 137.445 14.6664V14.6663H139.444V15.8616C139.444 16.1585 139.803 16.3073 140.013 16.0973L141.875 14.2353ZM141.875 22.2353C142.005 22.1052 142.005 21.8941 141.875 21.7639L140.013 19.902C139.803 19.692 139.444 19.8407 139.444 20.1377V21.333H137.445V21.333C136.341 21.3323 135.446 20.4371 135.446 19.333L135.444 19.333V16.6663V16.6663C135.444 14.8255 133.952 13.3333 132.111 13.333V13.3329H129.444C129.076 13.3329 128.778 13.6314 128.778 13.9996C128.778 14.3678 129.076 14.6663 129.444 14.6663H132.11V14.6663C133.215 14.6663 134.11 15.5618 134.11 16.6663L134.11 19.333L134.111 19.333V19.333H134.11C134.11 19.5613 134.133 19.7843 134.177 19.9997C134.277 20.4921 134.485 20.945 134.776 21.3325L134.777 21.3315C135.385 22.142 136.354 22.6663 137.445 22.6663V22.6663H139.444V23.8616C139.444 24.1585 139.803 24.3073 140.013 24.0973L141.875 22.2353ZM128.778 21.9996C128.778 21.6314 129.076 21.3329 129.444 21.3329H132.108V21.3329H132.108C132.729 21.3329 133.284 21.0502 133.65 20.6066C133.801 21.0549 134.029 21.4678 134.318 21.8293C133.73 22.3496 132.957 22.6656 132.111 22.6661V22.6663H129.444C129.076 22.6663 128.778 22.3678 128.778 21.9996ZM132.109 15.9994L132.076 15.9995H132.108V17.3329H132.108L132.11 17.3329V15.9996H132.144L132.109 15.9994ZM137.445 19.9998H137.445V18.6664H137.445V19.9998L137.445 19.9998Z" fill="#586A84"/>
<rect x="1" y="0.5" width="207.75" height="35" rx="17.5" stroke="#586A84"/>
</svg>
